{
  "accessors": [
    {
      "bufferView": 1,
      "componentType": 5126,
      "count": 65532,
      "max": [
        3.325566053390503,
        1.7952301502227783,
        2.121366024017334
      ],
      "min": [
        0.07012593746185303,
        0.0,
        0.0
      ],
      "type": "VEC3"
    },
    {
      "bufferView": 1,
      "byteOffset": 786384,
      "componentType": 5126,
      "count": 65532,
      "max": [
        1.0,
        1.0,
        1.0
      ],
      "min": [
        -0.9999945163726807,
        -1.0,
        -0.9999998211860657
      ],
      "type": "VEC3"
    },
    {
      "bufferView": 2,
      "componentType": 5126,
      "count": 65532,
      "max": [
        1.0,
        1.0,
        1.0,
        1.0
      ],
      "min": [
        0.8509804010391235,
        0.23529411852359772,
        0.08627451211214066,
        1.0
      ],
      "type": "VEC4"
    },
    {
      "bufferView": 0,
      "componentType": 5125,
      "count": 346185,
      "type": "SCALAR"
    },
    {
      "bufferView": 1,
      "byteOffset": 1572768,
      "componentType": 5126,
      "count": 65532,
      "max": [
        3.313086986541748,
        1.4644922018051147,
        2.5048890113830566
      ],
      "min": [
        0.0,
        0.1768651008605957,
        0.004889011383056641
      ],
      "type": "VEC3"
    },
    {
      "bufferView": 1,
      "byteOffset": 2359152,
      "componentType": 5126,
      "count": 65532,
      "max": [
        0.9999994039535522,
        1.0,
        0.9999725222587585
      ],
      "min": [
        -1.0,
        -1.0,
        -1.0
      ],
      "type": "VEC3"
    },
    {
      "bufferView": 2,
      "byteOffset": 1048512,
      "componentType": 5126,
      "count": 65532,
      "max": [
        1.0,
        1.0,
        1.0,
        1.0
      ],
      "min": [
        0.9058823585510254,
        0.24313725531101227,
        0.32549020648002625,
        1.0
      ],
      "type": "VEC4"
    },
    {
      "bufferView": 0,
      "byteOffset": 1384740,
      "componentType": 5125,
      "count": 327108,
      "type": "SCALAR"
    },
    {
      "bufferView": 1,
      "byteOffset": 3145536,
      "componentType": 5126,
      "count": 65532,
      "max": [
        2.960252046585083,
        1.790233850479126,
        3.0643301010131836
      ],
      "min": [
        0.0,
        0.5461832880973816,
        0.04750204086303711
      ],
      "type": "VEC3"
    },
    {
      "bufferView": 1,
      "byteOffset": 3931920,
      "componentType": 5126,
      "count": 65532,
      "max": [
        1.0,
        1.0,
        1.0
      ],
      "min": [
        -0.9999998807907104,
        -1.0,
        -1.0
      ],
      "type": "VEC3"
    },
    {
      "bufferView": 2,
      "byteOffset": 2097024,
      "componentType": 5126,
      "count": 65532,
      "max": [
        1.0,
        1.0,
        1.0,
        1.0
      ],
      "min": [
        0.8509804010391235,
        0.2666666805744171,
        0.08627451211214066,
        1.0
      ],
      "type": "VEC4"
    },
    {
      "bufferView": 0,
      "byteOffset": 2693172,
      "componentType": 5125,
      "count": 289179,
      "type": "SCALAR"
    },
    {
      "bufferView": 1,
      "byteOffset": 4718304,
      "componentType": 5126,
      "count": 1356,
      "max": [
        2.9744558334350586,
        0.603001594543457,
        2.2022461891174316
      ],
      "min": [
        1.1988880634307861,
        0.5319787859916687,
        0.07591104507446289
      ],
      "type": "VEC3"
    },
    {
      "bufferView": 1,
      "byteOffset": 4734576,
      "componentType": 5126,
      "count": 1356,
      "max": [
        0.9767708778381348,
        0.9544494152069092,
        0.9833657145500183
      ],
      "min": [
        -0.9619113206863403,
        -0.9848693013191223,
        -0.9974945187568665
      ],
      "type": "VEC3"
    },
    {
      "bufferView": 2,
      "byteOffset": 3145536,
      "componentType": 5126,
      "count": 1356,
      "max": [
        1.0,
        1.0,
        1.0,
        1.0
      ],
      "min": [
        0.9803921580314636,
        0.27843138575553894,
        0.3843137323856354,
        1.0
      ],
      "type": "VEC4"
    },
    {
      "bufferView": 0,
      "byteOffset": 3849888,
      "componentType": 5125,
      "count": 3210,
      "type": "SCALAR"
    }
  ],
  "asset": {
    "extras": {
      "author": "jamespage01 (https://sketchfab.com/jamespage01)",
      "license": "CC-BY-4.0 (http://creativecommons.org/licenses/by/4.0/)",
      "source": "https://sketchfab.com/3d-models/phalaenopsis-orchid-4eb7962d6b9e42599834eb80363ac567",
      "title": "Phalaenopsis Orchid"
    },
    "generator": "Sketchfab-12.68.0",
    "version": "2.0"
  },
  "bufferViews": [
    {
      "buffer": 0,
      "byteLength": 3862728,
      "name": "floatBufferViews",
      "target": 34963
    },
    {
      "buffer": 0,
      "byteLength": 4750848,
      "byteOffset": 3862728,
      "byteStride": 12,
      "name": "floatBufferViews",
      "target": 34962
    },
    {
      "buffer": 0,
      "byteLength": 3167232,
      "byteOffset": 8613576,
      "byteStride": 16,
      "name": "floatBufferViews",
      "target": 34962
    }
  ],
  "buffers": [
    {
      "byteLength": 11780808,
      "uri": "scene.bin"
    }
  ],
  "materials": [
    {
      "doubleSided": true,
      "name": "Scene_-_Root",
      "pbrMetallicRoughness": {
        "metallicFactor": 0.0,
        "roughnessFactor": 0.6
      }
    }
  ],
  "meshes": [
    {
      "name": "Object_0",
      "primitives": [
        {
          "attributes": {
            "COLOR_0": 2,
            "NORMAL": 1,
            "POSITION": 0
          },
          "indices": 3,
          "material": 0,
          "mode": 4
        }
      ]
    },
    {
      "name": "Object_1",
      "primitives": [
        {
          "attributes": {
            "COLOR_0": 6,
            "NORMAL": 5,
            "POSITION": 4
          },
          "indices": 7,
          "material": 0,
          "mode": 4
        }
      ]
    },
    {
      "name": "Object_2",
      "primitives": [
        {
          "attributes": {
            "COLOR_0": 10,
            "NORMAL": 9,
            "POSITION": 8
          },
          "indices": 11,
          "material": 0,
          "mode": 4
        }
      ]
    },
    {
      "name": "Object_3",
      "primitives": [
        {
          "attributes": {
            "COLOR_0": 14,
            "NORMAL": 13,
            "POSITION": 12
          },
          "indices": 15,
          "material": 0,
          "mode": 4
        }
      ]
    }
  ],
  "nodes": [
    {
      "children": [
        1
      ],
      "matrix": [
        0.9134262800216675,
        -0.03607993945479402,
        0.4054018557071686,
        0.0,
        0.3044371008872986,
        0.7216588854789735,
        -0.621712565422058,
        0.0,
        -0.2701305150985718,
        0.6913079619407653,
        0.6701662540435792,
        0.0,
        0.028738001361489296,
        0.001368832658045031,
        -0.1667444109916687,
        1.0
      ],
      "name": "Sketchfab_model"
    },
    {
      "children": [
        2
      ],
      "matrix": [
        1.0,
        0.0,
        0.0,
        0.0,
        0.0,
        1.0,
        0.0,
        0.0,
        0.0,
        0.0,
        1.0,
        0.0,
        -1.7833009958267212,
        -0.7931460738182068,
        -1.269415020942688,
        1.0
      ],
      "name": "OrchidComplete3.obj.cleaner.materialmerger.gles"
    },
    {
      "children": [
        3,
        4,
        5,
        6
      ],
      "name": "Object_2"
    },
    {
      "mesh": 0,
      "name": "Object_3"
    },
    {
      "mesh": 1,
      "name": "Object_4"
    },
    {
      "mesh": 2,
      "name": "Object_5"
    },
    {
      "mesh": 3,
      "name": "Object_6"
    }
  ],
  "scene": 0,
  "scenes": [
    {
      "name": "Sketchfab_Scene",
      "nodes": [
        0
      ]
    }
  ]
}
